<?xml version="1.0" encoding="UTF-8"?>
<svg width="834px" height="80px" viewBox="0 0 834 80" version="1.1" xmlns="http://www.w3.org/2000/svg" xmlns:xlink="http://www.w3.org/1999/xlink">
    <!-- Generator: Sketch 57.1 (83088) - https://sketch.com -->
    <title>SVGCLIPPATH</title>
    <desc>Created with Sketch.</desc>
    <g id="Page-1" stroke="none" stroke-width="1" fill="none" fill-rule="evenodd">
        <g id="Artboard" transform="translate(-181.000000, -270.000000)" fill="#3E3E3E" fill-rule="nonzero">
            <path d="M243.1,298.536 C238.995979,296.159988 234.424025,294.072009 229.384,292.272 C224.343975,290.471991 220.240016,289.572 217.072,289.572 C213.975985,289.572 212.428,290.687989 212.428,292.92 C212.428,294.648009 213.41799,295.979995 215.398,296.916 C217.37801,297.852005 220.527978,298.895994 224.848,300.048 C230.248027,301.560008 234.729982,303.071992 238.294,304.584 C241.858018,306.096008 244.971987,308.489984 247.636,311.766 C250.300013,315.042016 251.632,319.343973 251.632,324.672 C251.632,330.144027 250.210014,334.733981 247.366,338.442 C244.521986,342.150019 240.688024,344.903991 235.864,346.704 C231.039976,348.504009 225.67603,349.404 219.772,349.404 C213.075967,349.404 206.326034,348.306011 199.522,346.11 C192.717966,343.913989 186.832025,340.908019 181.864,337.092 L191.152,318.192 C194.968019,321.504017 199.755971,324.329988 205.516,326.67 C211.276029,329.010012 216.099981,330.18 219.988,330.18 C221.860009,330.18 223.335995,329.838003 224.416,329.154 C225.496005,328.469997 226.036,327.408007 226.036,325.968 C226.036,324.239991 225.01001,322.890005 222.958,321.918 C220.90599,320.945995 217.684022,319.920005 213.292,318.84 C207.963973,317.471993 203.518018,316.050007 199.954,314.574 C196.389982,313.097993 193.312013,310.812015 190.72,307.716 C188.127987,304.619985 186.832,300.480026 186.832,295.296 C186.832,290.255975 188.163987,285.846019 190.828,282.066 C193.492013,278.285981 197.271976,275.38801 202.168,273.372 C207.064024,271.35599 212.751968,270.348 219.232,270.348 C225.13603,270.348 231.021971,271.175992 236.89,272.832 C242.758029,274.488008 247.851978,276.683986 252.172,279.42 L243.1,298.536 Z M252.172,272.292 L278.956,272.292 L294.616,321.972 L310.168,272.292 L335.764,272.292 L306.82,348 L280.9,348 L252.172,272.292 Z M389.548,308.148 L411.04,308.148 L411.04,339.792 C406.791979,342.672014 401.554031,345.047991 395.326,346.92 C389.097969,348.792009 383.284027,349.728 377.884,349.728 C370.035961,349.728 362.998031,348.018017 356.77,344.598 C350.541969,341.177983 345.664018,336.46203 342.136,330.45 C338.607982,324.43797 336.844,317.652038 336.844,310.092 C336.844,302.603963 338.679982,295.85403 342.352,289.842 C346.024018,283.82997 351.099968,279.132017 357.58,275.748 C364.060032,272.363983 371.367959,270.672 379.504,270.672 C385.40803,270.672 391.32997,271.751989 397.27,273.912 C403.21003,276.072011 408.19598,278.951982 412.228,282.552 L398.08,299.724 C395.559987,297.203987 392.590017,295.206007 389.17,293.73 C385.749983,292.253993 382.492015,291.516 379.396,291.516 C376.227984,291.516 373.348013,292.325992 370.756,293.946 C368.163987,295.566008 366.148007,297.779986 364.708,300.588 C363.267993,303.396014 362.548,306.563982 362.548,310.092 C362.548,313.692018 363.285993,316.913986 364.762,319.758 C366.238007,322.602014 368.271987,324.833992 370.864,326.454 C373.456013,328.074008 376.371984,328.884 379.612,328.884 C382.348014,328.884 385.659981,328.020009 389.548,326.292 L389.548,308.148 Z M496.684,301.884 C494.451989,298.787985 491.770016,296.28601 488.638,294.378 C485.505984,292.46999 482.464015,291.516 479.512,291.516 C476.559985,291.516 473.878012,292.289992 471.466,293.838 C469.053988,295.386008 467.182007,297.527986 465.85,300.264 C464.517993,303.000014 463.852,306.095983 463.852,309.552 C463.852,313.008017 464.517993,316.121986 465.85,318.894 C467.182007,321.666014 469.053988,323.843992 471.466,325.428 C473.878012,327.012008 476.559985,327.804 479.512,327.804 C482.248014,327.804 485.181984,326.994008 488.314,325.374 C491.446016,323.753992 494.235988,321.612013 496.684,318.948 L511.156,334.392 C506.907979,339.072023 501.81403,342.797986 495.874,345.57 C489.93397,348.342014 484.048029,349.728 478.216,349.728 C470.583962,349.728 463.72603,348.018017 457.642,344.598 C451.55797,341.177983 446.788017,336.42603 443.332,330.342 C439.875983,324.25797 438.148,317.436038 438.148,309.876 C438.148,302.387963 439.911982,295.67403 443.44,289.734 C446.968018,283.79397 451.845969,279.132017 458.074,275.748 C464.302031,272.363983 471.339961,270.672 479.188,270.672 C484.948029,270.672 490.743971,271.949987 496.576,274.506 C502.408029,277.062013 507.267981,280.463979 511.156,284.712 L496.684,301.884 Z M516.232,272.292 L541.288,272.292 L541.288,327.156 L572.824,327.156 L572.824,348 L516.232,348 L516.232,272.292 Z M579.304,272.292 L604.36,272.292 L604.36,348 L579.304,348 L579.304,272.292 Z M650.692,272.292 C660.556049,272.292 668.187973,274.649976 673.588,279.366 C678.988027,284.082024 681.688,290.759957 681.688,299.4 C681.688,308.544046 678.988027,315.653975 673.588,320.73 C668.187973,325.806025 660.556049,328.344 650.692,328.344 L640.216,328.344 L640.216,348 L615.16,348 L615.16,272.292 L650.692,272.292 Z M649.396,309.336 C652.132014,309.336 654.237993,308.526008 655.714,306.906 C657.190007,305.285992 657.928,303.036014 657.928,300.156 C657.928,297.347986 657.190007,295.170008 655.714,293.622 C654.237993,292.073992 652.132014,291.3 649.396,291.3 L640.216,291.3 L640.216,309.336 L649.396,309.336 Z M746.38,272.292 C756.244049,272.292 763.875973,274.649976 769.276,279.366 C774.676027,284.082024 777.376,290.759957 777.376,299.4 C777.376,308.544046 774.676027,315.653975 769.276,320.73 C763.875973,325.806025 756.244049,328.344 746.38,328.344 L735.904,328.344 L735.904,348 L710.848,348 L710.848,272.292 L746.38,272.292 Z M745.084,309.336 C747.820014,309.336 749.925993,308.526008 751.402,306.906 C752.878007,305.285992 753.616,303.036014 753.616,300.156 C753.616,297.347986 752.878007,295.170008 751.402,293.622 C749.925993,292.073992 747.820014,291.3 745.084,291.3 L735.904,291.3 L735.904,309.336 L745.084,309.336 Z M840.232,348 L836.452,337.308 L808.048,337.308 L804.16,348 L778.456,348 L810.424,272.292 L836.128,272.292 L866.908,348 L840.232,348 Z M814.528,319.38 L830.296,319.38 L822.52,297.24 L814.528,319.38 Z M866.368,272.292 L934.516,272.292 L934.516,292.056 L912.916,292.056 L912.916,348 L887.86,348 L887.86,292.056 L866.368,292.056 L866.368,272.292 Z M940.456,272.292 L965.512,272.292 L965.512,301.668 L988.948,301.668 L988.948,272.292 L1014.004,272.292 L1014.004,348 L988.948,348 L988.948,320.676 L965.512,320.676 L965.512,348 L940.456,348 L940.456,272.292 Z" id="SVGCLIPPATH"></path>
        </g>
    </g>
</svg>